HIERARCHY
ROOT Hips
{
	OFFSET 0.00000 0.00000 0.00000
	CHANNELS 6 Xposition Yposition Zposition Zrotation Yrotation Xrotation 
	JOINT RightUpLegDummy
	{
		OFFSET 0 0 0
		CHANNELS 3 Zrotation Yrotation Xrotation
		JOINT RightUpLeg
		{
			OFFSET -3.52197 -3.41223 0.04002
			CHANNELS 3 Zrotation Yrotation Xrotation
			JOINT RightLeg
			{
				OFFSET -1.06336 -17.58347 1.60435
				CHANNELS 3 Zrotation Yrotation Xrotation
				JOINT RightFoot
				{
					OFFSET -0.27018 -17.05419 -1.63900
					CHANNELS 3 Zrotation Yrotation Xrotation
					JOINT RightToes
					{
						OFFSET 0.00298 -1.73825 3.34613
						CHANNELS 3 Zrotation Yrotation Xrotation
						End Site
						{
							OFFSET 0.00480 -0.05416 3.85043
						}
					}
				}
			}
		}
	}
	JOINT SpineDummy
	{
		OFFSET 0 0 0
		CHANNELS 3 Zrotation Yrotation Xrotation
		JOINT Spine
		{
			OFFSET 0.00000 4.14613 0.00000
			CHANNELS 3 Zrotation Yrotation Xrotation
			JOINT Spine1
			{
				OFFSET 0.00000 10.93369 0.05002
				CHANNELS 3 Zrotation Yrotation Xrotation
				JOINT HEadDummy
				{
					OFFSET 0 0 0
					CHANNELS 3 Zrotation Yrotation Xrotation
					JOINT Head
					{
						OFFSET 0.00000 5.52901 0.00438
						CHANNELS 3 Zrotation Yrotation Xrotation
						End Site
						{
							OFFSET -0.11417 7.29012 0.98962
						}
					}
				}
				JOINT LeftShoulder1Dummy
				{
					OFFSET 0 0 0
					CHANNELS 3 Zrotation Yrotation Xrotation
					JOINT LeftShoulder1
					{
						OFFSET 3.53937 -0.14262 -0.08662
						CHANNELS 3 Zrotation Yrotation Xrotation
						JOINT LeftArm
						{
							OFFSET 4.04833 -0.00133 0.12681
							CHANNELS 3 Zrotation Yrotation Xrotation
							JOINT LeftForeArm
							{
								OFFSET 9.67557 0.03289 -0.56117
								CHANNELS 3 Zrotation Yrotation Xrotation
								JOINT LeftHand
								{
									OFFSET 10.17679 0.06873 0.40307
									CHANNELS 3 Zrotation Yrotation Xrotation
									End Site
									{
										OFFSET 6.59293 -0.21483 0.59213
									}
								}
							}
						}
					}
				}
				JOINT RightShoulderDummy
				{
					OFFSET 0 0 0
					CHANNELS 3 Zrotation Yrotation Xrotation
					JOINT RightShoulder
					{
						OFFSET -3.53937 -0.14262 -0.08660
						CHANNELS 3 Zrotation Yrotation Xrotation
						JOINT RightArm
						{
							OFFSET -4.04833 -0.00132 0.12683
							CHANNELS 3 Zrotation Yrotation Xrotation
							JOINT RightForeArm
							{
								OFFSET -9.67570 0.03289 -0.56114
								CHANNELS 3 Zrotation Yrotation Xrotation
								JOINT RightHand
								{
									OFFSET -10.17679 0.06867 0.40304
									CHANNELS 3 Zrotation Yrotation Xrotation
									End Site
									{
										OFFSET -6.54841 -0.21495 0.59212
									}
								}
							}
						}
					}
				}
			}
		}
	}
	JOINT LeftUpLegDummy
	{
		OFFSET 0 0 0
		CHANNELS 3 Zrotation Yrotation Xrotation
		JOINT LeftUpLeg
		{
			OFFSET 3.52197 -3.41223 0.04002
			CHANNELS 3 Zrotation Yrotation Xrotation
			JOINT LeftLeg
			{
				OFFSET 1.08359 -17.35354 1.60336
				CHANNELS 3 Zrotation Yrotation Xrotation
				JOINT LeftFoot
				{
					OFFSET 0.24986 -17.28405 -1.63802
					CHANNELS 3 Zrotation Yrotation Xrotation
					JOINT LeftToes
					{
						OFFSET -0.01575 -1.73822 3.34610
						CHANNELS 3 Zrotation Yrotation Xrotation
						End Site
						{
							OFFSET 0.03150 -0.01868 3.85031
						}
					}
				}
			}
		}
	}
}
MOTION
Frames: 17
Frame Time: 0.033333
10.4251 41.1160 -1.3061 175.9040 -86.9473 -174.8670 0.0000 0.0000 0.0000 -2.9376 -4.4220 0.5036 -1.7366 2.5609 2.6489 -3.8133 0.2943 -4.4828 0.0000 0.0000 -0.0000 0.0000 0.0000 0.0000 -0.8458 0.3557 -5.7304 -0.1841 0.4995 5.1046 0.0000 0.0000 0.0000 0.1800 -5.7319 2.8702 0.0000 0.0000 0.0000 1.3174 4.3762 -0.0010 8.9089 -15.2844 -35.2332 -8.3031 5.2906 38.2201 2.8020 0.2564 -0.1138 0.0000 0.0000 0.0000 -0.1522 -0.1906 0.3157 -4.3572 11.8155 -28.4167 4.2090 -5.5016 26.9788 -0.9516 -0.8082 -0.0322 0.0000 0.0000 0.0000 4.6904 7.4309 -0.4448 0.6960 3.7053 -0.3672 1.9937 -0.1932 0.2090 -0.0000 -0.0000 0.0000
10.4251 41.1160 -1.3077 175.7450 -86.9485 -174.6950 0.0000 0.0000 0.0000 -2.9386 -4.4220 0.4856 -1.7480 2.5434 2.6537 -3.7892 0.2928 -4.4941 0.0000 0.0000 -0.0000 0.0000 0.0000 0.0000 -0.8259 0.3626 -5.7626 -0.2225 0.5142 5.1049 0.0000 0.0000 0.0000 0.1978 -5.7093 2.9179 0.0000 0.0000 0.0000 1.3168 4.3830 -0.0010 8.9439 -15.3027 -35.2825 -8.2732 5.2876 38.3918 2.8924 0.1596 -0.1128 0.0000 0.0000 0.0000 -0.1279 -0.1780 0.3157 -4.3830 11.7985 -28.4298 4.2089 -5.5018 26.9137 -0.8142 -0.7786 -0.0325 0.0000 0.0000 0.0000 4.6845 7.4304 -0.4629 0.6917 3.7058 -0.3672 1.9837 -0.1926 0.2090 -0.0000 -0.0000 0.0000
10.4251 41.1160 -1.3112 175.4510 -86.9656 -174.3900 0.0000 0.0000 0.0000 -2.9433 -4.4234 0.4727 -1.7615 2.5111 2.6597 -3.7616 0.2911 -4.5182 0.0000 0.0000 -0.0000 0.0000 0.0000 0.0000 -0.8054 0.3753 -5.8463 -0.2657 0.5369 5.1624 0.0000 0.0000 0.0000 0.2015 -5.7449 2.9481 0.0000 0.0000 0.0000 1.3178 4.3884 -0.0010 8.9961 -15.3442 -35.3893 -8.2113 5.2833 38.6401 2.9275 -0.0061 -0.1122 0.0000 0.0000 0.0000 -0.1216 -0.1913 0.3157 -4.3921 11.7786 -28.4390 4.2076 -5.5021 26.8450 -0.6853 -0.7127 -0.0325 0.0000 0.0000 0.0000 4.6754 7.4255 -0.4803 0.6848 3.7002 -0.3672 1.9686 -0.1916 0.2115 -0.0000 -0.0000 0.0000
10.4257 41.1160 -1.3151 175.1280 -87.0195 -174.0690 0.0000 0.0000 0.0000 -2.9510 -4.4331 0.4802 -1.7651 2.4800 2.6669 -3.7636 0.2913 -4.5193 0.0000 0.0000 -0.0000 0.0000 0.0000 0.0000 -0.8126 0.3759 -5.9215 -0.2646 0.5409 5.2370 0.0000 0.0000 0.0000 0.1790 -5.8315 2.9023 0.0000 0.0000 0.0000 1.3411 4.3940 -0.0010 9.0141 -15.3843 -35.4809 -8.1610 5.2817 38.7476 2.8302 -0.0463 -0.1129 0.0000 0.0000 0.0000 -0.1503 -0.2394 0.3157 -4.3591 11.7778 -28.4473 4.1969 -5.5020 26.8569 -0.6630 -0.6788 -0.0324 0.0000 0.0000 0.0000 4.6653 7.4094 -0.4876 0.6848 3.6631 -0.3671 1.9660 -0.1914 0.2238 -0.0000 -0.0000 0.0000
10.4281 41.1160 -1.3182 174.7880 -87.0950 -173.7470 0.0000 0.0000 0.0000 -2.9609 -4.4551 0.4971 -1.7667 2.4387 2.6923 -3.7779 0.2922 -4.5171 0.0000 0.0000 -0.0000 0.0000 0.0000 0.0000 -0.8559 0.3536 -5.9231 -0.2127 0.5126 5.2400 0.0000 0.0000 0.0000 0.1481 -5.8589 2.8438 0.0000 0.0000 0.0000 1.4003 4.4132 -0.0010 8.9661 -15.3885 -35.4799 -8.1582 5.2825 38.7068 2.7595 0.0572 -0.1137 0.0000 0.0000 0.0000 -0.1750 -0.2747 0.3157 -4.3200 11.7863 -28.4877 4.1662 -5.5015 26.9192 -0.6813 -0.7083 -0.0325 0.0000 0.0000 0.0000 4.6550 7.3900 -0.4882 0.6885 3.5962 -0.3631 1.9791 -0.1923 0.2351 -0.0000 -0.0000 0.0000
10.4305 41.1160 -1.3192 174.5070 -87.1592 -173.4990 0.0000 0.0000 0.0000 -2.9711 -4.4755 0.5246 -1.7651 2.3775 2.7225 -3.7792 0.2923 -4.5433 0.0000 0.0000 -0.0000 0.0000 0.0000 0.0000 -0.9117 0.3238 -5.8737 -0.1357 0.4703 5.1867 0.0000 0.0000 0.0000 0.1219 -5.7887 2.8489 0.0000 0.0000 0.0000 1.4478 4.4449 -0.0010 8.8824 -15.3653 -35.4197 -8.1809 5.2833 38.6532 2.8207 0.1185 -0.1133 0.0000 0.0000 0.0000 -0.1733 -0.2723 0.3157 -4.3107 11.7715 -28.5409 4.1319 -5.5013 26.9561 -0.7184 -0.7390 -0.0325 0.0000 0.0000 0.0000 4.6509 7.3852 -0.4801 0.6837 3.5205 -0.3456 1.9919 -0.1931 0.2326 -0.0000 -0.0000 0.0000
10.4324 41.1165 -1.3170 174.4290 -87.2000 -173.4480 0.0000 0.0000 0.0000 -2.9780 -4.4910 0.5607 -1.7596 2.3402 2.7196 -3.7955 0.2934 -4.5423 0.0000 0.0000 -0.0000 0.0000 0.0000 0.0000 -0.9359 0.3104 -5.8615 -0.0729 0.4453 5.1770 0.0000 0.0000 0.0000 0.1124 -5.7056 2.8879 0.0000 0.0000 0.0000 1.4444 4.4681 -0.0010 8.8306 -15.3583 -35.4040 -8.1817 5.2838 38.6289 2.8747 0.0497 -0.1125 0.0000 0.0000 0.0000 -0.1652 -0.2658 0.3157 -4.3214 11.7267 -28.5447 4.1251 -5.5003 26.9327 -0.7934 -0.7418 -0.0324 0.0000 0.0000 0.0000 4.6571 7.3961 -0.4702 0.6663 3.4670 -0.3300 1.9997 -0.1936 0.2293 -0.0000 -0.0000 0.0000
10.4364 41.1186 -1.3124 174.5400 -87.2273 -173.5580 0.0000 0.0000 0.0000 -2.9819 -4.5105 0.5798 -1.7475 2.3663 2.6711 -3.8457 0.2963 -4.4484 0.0000 0.0000 -0.0000 0.0000 0.0000 0.0000 -0.9082 0.3120 -5.9166 -0.0569 0.4448 5.2262 0.0000 0.0000 0.0000 0.1309 -5.6577 2.8815 0.0000 0.0000 0.0000 1.4336 4.4696 -0.0010 8.8295 -15.3757 -35.4527 -8.1566 5.2849 38.5855 2.7685 -0.0243 -0.1101 0.0000 0.0000 0.0000 -0.1671 -0.2785 0.3157 -4.3176 11.6756 -28.5077 4.1352 -5.4942 26.8752 -0.8160 -0.8020 -0.0316 0.0000 0.0000 0.0000 4.6666 7.4065 -0.4801 0.6430 3.4483 -0.3384 2.0190 -0.1948 0.2460 -0.0000 -0.0000 0.0000
10.4446 41.1212 -1.3062 174.6810 -87.2396 -173.6830 0.0000 0.0000 0.0000 -2.9886 -4.5305 0.5816 -1.7312 2.4128 2.5904 -3.8686 0.2974 -4.3149 0.0000 0.0000 -0.0000 0.0000 0.0000 0.0000 -0.8591 0.3129 -5.9574 -0.0762 0.4506 5.2325 0.0000 0.0000 0.0000 0.1519 -5.5788 2.8256 0.0000 0.0000 0.0000 1.4600 4.4612 -0.0010 8.8291 -15.3830 -35.4969 -8.1335 5.2858 38.5497 2.5934 -0.0254 -0.1031 0.0000 0.0000 0.0000 -0.1667 -0.2767 0.3166 -4.2985 11.6142 -28.4971 4.1326 -5.4959 26.8454 -0.6825 -0.9703 -0.0278 0.0000 0.0000 0.0000 4.6706 7.4102 -0.5049 0.6224 3.4485 -0.3588 2.0521 -0.1970 0.2726 -0.0000 -0.0000 0.0000
10.4565 41.1230 -1.2973 174.8580 -87.2144 -173.8650 0.0000 0.0000 0.0000 -2.9990 -4.5336 0.6020 -1.7330 2.4514 2.4941 -3.8302 0.2946 -4.2147 0.0000 0.0000 -0.0000 0.0000 0.0000 0.0000 -0.8156 0.3196 -5.8911 -0.0943 0.4596 5.1251 0.0000 0.0000 0.0000 0.1273 -5.4564 2.7929 0.0000 0.0000 0.0000 1.4831 4.4626 -0.0010 8.7941 -15.3853 -35.5126 -8.1205 5.2858 38.5606 2.5292 -0.0526 -0.1008 0.0000 0.0000 0.0000 -0.1383 -0.2259 0.3221 -4.3229 11.5029 -28.4880 4.1267 -5.5027 26.8631 -0.4961 -1.1347 -0.0225 0.0000 0.0000 0.0000 4.6686 7.4151 -0.5030 0.6113 3.4654 -0.3762 2.0788 -0.1987 0.2878 -0.0000 -0.0000 0.0000
10.4734 41.1258 -1.2811 175.1210 -87.1253 -174.1600 0.0000 0.0000 0.0000 -3.0157 -4.5260 0.6209 -1.7448 2.5842 2.4239 -3.8165 0.2943 -4.0929 0.0000 0.0000 -0.0000 0.0000 0.0000 0.0000 -0.7180 0.3548 -5.7195 -0.1801 0.5067 4.9355 0.0000 0.0000 0.0000 0.0952 -5.4015 2.8188 0.0000 0.0000 0.0000 1.4863 4.4885 -0.0020 8.7668 -15.4537 -35.5458 -8.1109 5.2860 38.5527 2.5637 -0.1454 -0.1035 0.0000 0.0000 0.0000 -0.0360 -0.1394 0.3342 -4.4484 11.3424 -28.3838 4.1714 -5.5021 26.8610 -0.4375 -1.1522 -0.0201 0.0000 0.0000 0.0000 4.6547 7.4171 -0.4649 0.6098 3.5455 -0.3992 2.1056 -0.2008 0.3036 -0.0000 -0.0000 0.0000
10.5013 41.1302 -1.2542 175.1960 -86.9573 -174.2570 0.0000 0.0000 0.0000 -3.0646 -4.5497 0.5565 -1.7335 2.9134 2.4310 -3.8734 0.3016 -3.8769 0.0000 0.0000 -0.0000 0.0000 0.0000 0.0000 -0.4429 0.4160 -5.4945 -0.5479 0.6312 4.7143 0.0000 0.0000 0.0000 0.1856 -5.4506 2.8312 0.0000 0.0000 0.0000 1.5701 4.5533 -0.0071 8.8217 -15.6532 -35.6379 -8.1042 5.2875 38.4801 2.5654 -0.1679 -0.1043 0.0000 0.0000 0.0000 0.1839 -0.0447 0.3518 -4.6248 11.1987 -28.2162 4.2677 -5.5020 26.8269 -0.4650 -1.0184 -0.0175 0.0000 0.0000 0.0000 4.6075 7.4106 -0.4389 0.6065 3.7357 -0.4247 2.1660 -0.2066 0.3417 -0.0000 -0.0000 0.0000
10.5458 41.1343 -1.2160 174.7640 -86.7108 -173.8470 0.0000 0.0000 0.0000 -3.1883 -4.6411 0.4071 -1.6844 3.3936 2.4958 -3.8600 0.3055 -3.6089 0.0000 0.0000 -0.0000 0.0000 0.0000 0.0000 0.0369 0.4777 -5.2106 -1.2964 0.8264 4.4896 0.0000 0.0000 0.0000 0.4339 -5.4959 2.7156 0.0000 0.0000 0.0000 1.7762 4.6550 -0.0151 8.9896 -16.0013 -35.8281 -8.0795 5.2880 38.4697 2.5088 -0.0626 -0.1003 0.0000 0.0000 0.0000 0.4618 0.0409 0.3711 -4.7065 11.1379 -28.1330 4.3163 -5.5007 26.9124 -0.4016 -0.8359 -0.0152 0.0000 0.0000 0.0000 4.5103 7.3853 -0.4435 0.5972 4.0274 -0.4147 2.2504 -0.2139 0.3877 -0.0000 -0.0000 0.0000
10.6084 41.1384 -1.1650 174.0820 -86.3986 -173.2350 0.0000 0.0000 0.0000 -3.3978 -4.7902 0.2468 -1.6015 3.9775 2.5715 -3.6243 0.2950 -3.3190 0.0000 0.0000 -0.0000 0.0000 0.0000 0.0000 0.5496 0.5308 -4.8392 -2.1525 1.0311 4.3119 0.0000 0.0000 0.0000 0.6757 -5.4095 2.4228 0.0000 0.0000 0.0000 1.9289 4.7462 -0.0221 9.2483 -16.4926 -36.1619 -7.9981 5.2843 38.6959 2.4230 0.0171 -0.0957 0.0000 0.0000 0.0000 0.6275 0.0891 0.3825 -4.6309 11.2236 -28.1570 4.2977 -5.4977 27.1640 -0.2620 -0.7291 -0.0131 0.0000 0.0000 0.0000 4.3678 7.3324 -0.4462 0.6088 4.3906 -0.3365 2.3064 -0.2195 0.4211 -0.0000 -0.0000 0.0000
10.6910 41.1447 -1.0959 173.7500 -86.0391 -172.9880 0.0000 0.0000 0.0000 -3.6460 -4.9472 0.0118 -1.4846 4.7078 2.7254 -3.2092 0.2715 -2.9503 0.0000 0.0000 -0.0000 0.0000 0.0000 0.0000 0.8618 0.5716 -4.4691 -2.7054 1.1664 4.2483 0.0000 0.0000 0.0000 0.7531 -5.1741 2.0611 0.0000 0.0000 0.0000 1.8489 4.7582 -0.0232 9.5654 -17.1002 -36.5995 -7.8724 5.2750 39.2235 2.1953 -0.0395 -0.0874 0.0000 0.0000 0.0000 0.6114 0.0825 0.3812 -4.5282 11.5859 -28.1965 4.3218 -5.4962 27.2803 -0.1711 -0.8188 -0.0111 0.0000 0.0000 0.0000 4.1924 7.2440 -0.5032 0.6712 4.8313 -0.1706 2.3411 -0.2242 0.4563 -0.0000 -0.0000 0.0000
10.7999 41.1516 -1.0012 173.9150 -85.6406 -173.1370 0.0000 0.0000 0.0000 -3.8809 -5.0674 -0.4796 -1.3465 5.5303 3.0648 -2.7464 0.2422 -2.5297 0.0000 0.0000 -0.0000 0.0000 0.0000 0.0000 0.9083 0.5609 -4.2750 -2.8821 1.1817 4.3363 0.0000 0.0000 0.0000 0.7378 -4.8523 1.8246 0.0000 0.0000 0.0000 1.6031 4.6702 -0.0167 9.9534 -17.7701 -37.0139 -7.7737 5.2595 40.0320 1.6789 -0.1490 -0.0677 0.0000 0.0000 0.0000 0.5808 0.0609 0.3778 -4.5707 12.3549 -28.2921 4.4240 -5.5181 27.0790 0.0533 -1.0837 -0.0059 0.0000 0.0000 0.0000 3.9866 7.1356 -0.7698 0.7614 5.3550 0.1129 2.4305 -0.2337 0.4944 -0.0000 -0.0000 0.0000
10.9406 41.1541 -0.8745 174.1780 -85.1770 -173.2860 0.0000 0.0000 0.0000 -4.1126 -5.1505 -1.1964 -1.2370 6.3177 3.5094 -2.2751 0.2097 -2.1625 0.0000 0.0000 -0.0000 0.0000 0.0000 0.0000 0.8048 0.4583 -4.2738 -2.9448 1.0899 4.5953 0.0000 0.0000 0.0000 0.8246 -4.4192 1.7121 0.0000 0.0000 0.0000 1.3445 4.5242 -0.0049 10.4877 -18.5049 -37.3693 -7.7431 5.2394 41.0092 1.0441 -0.2525 -0.0419 0.0000 0.0000 0.0000 0.7184 0.0889 0.3862 -4.7743 13.4760 -28.4757 4.5081 -5.3937 27.2151 0.9209 -1.2095 0.0183 0.0000 0.0000 0.0000 3.7454 7.0420 -1.2312 0.8210 5.9482 0.4896 2.6069 -0.2512 0.4877 -0.0000 -0.0000 0.0000
